<mxfile host="app.diagrams.net" agent="Mozilla/5.0 (Windows NT 10.0; Win64; x64) AppleWebKit/537.36 (KHTML, like Gecko) Chrome/131.0.0.0 Safari/537.36" version="24.8.6">
  <diagram name="Page-1" id="o0Fvx379OKAzdxpli8dA">
    <mxGraphModel dx="1050" dy="618" grid="1" gridSize="10" guides="1" tooltips="1" connect="1" arrows="1" fold="1" page="1" pageScale="1" pageWidth="850" pageHeight="1100" math="0" shadow="0">
      <root>
        <mxCell id="0" />
        <mxCell id="1" parent="0" />
        <mxCell id="kPjmXngsmsVLts5UkG2c-30" value="" style="edgeStyle=orthogonalEdgeStyle;rounded=0;orthogonalLoop=1;jettySize=auto;html=1;" edge="1" parent="1" source="kPjmXngsmsVLts5UkG2c-1" target="kPjmXngsmsVLts5UkG2c-2">
          <mxGeometry relative="1" as="geometry" />
        </mxCell>
        <mxCell id="kPjmXngsmsVLts5UkG2c-1" value="Start" style="rounded=1;whiteSpace=wrap;html=1;" vertex="1" parent="1">
          <mxGeometry x="160" y="30" width="200" height="60" as="geometry" />
        </mxCell>
        <mxCell id="kPjmXngsmsVLts5UkG2c-15" style="edgeStyle=orthogonalEdgeStyle;rounded=0;orthogonalLoop=1;jettySize=auto;html=1;exitX=0.5;exitY=1;exitDx=0;exitDy=0;entryX=0.5;entryY=0;entryDx=0;entryDy=0;" edge="1" parent="1" source="kPjmXngsmsVLts5UkG2c-2" target="kPjmXngsmsVLts5UkG2c-3">
          <mxGeometry relative="1" as="geometry" />
        </mxCell>
        <mxCell id="kPjmXngsmsVLts5UkG2c-2" value="&lt;div&gt;Initialiseer:&lt;/div&gt;totale_bijdrage_som = 0&lt;div&gt;nr_medewerker = 1&lt;/div&gt;&lt;div&gt;aantal_medewerkers = aantal in de lijst&lt;/div&gt;" style="rounded=0;whiteSpace=wrap;html=1;" vertex="1" parent="1">
          <mxGeometry x="160" y="130" width="200" height="80" as="geometry" />
        </mxCell>
        <mxCell id="kPjmXngsmsVLts5UkG2c-16" value="" style="edgeStyle=orthogonalEdgeStyle;rounded=0;orthogonalLoop=1;jettySize=auto;html=1;" edge="1" parent="1" source="kPjmXngsmsVLts5UkG2c-3" target="kPjmXngsmsVLts5UkG2c-4">
          <mxGeometry relative="1" as="geometry" />
        </mxCell>
        <mxCell id="kPjmXngsmsVLts5UkG2c-27" value="" style="edgeStyle=orthogonalEdgeStyle;rounded=0;orthogonalLoop=1;jettySize=auto;html=1;" edge="1" parent="1" source="kPjmXngsmsVLts5UkG2c-3" target="kPjmXngsmsVLts5UkG2c-26">
          <mxGeometry relative="1" as="geometry" />
        </mxCell>
        <mxCell id="kPjmXngsmsVLts5UkG2c-3" value="if nr_medewerker &amp;lt; aantal medewerkers" style="rhombus;whiteSpace=wrap;html=1;" vertex="1" parent="1">
          <mxGeometry x="160" y="390" width="200" height="80" as="geometry" />
        </mxCell>
        <mxCell id="kPjmXngsmsVLts5UkG2c-41" value="" style="edgeStyle=orthogonalEdgeStyle;rounded=0;orthogonalLoop=1;jettySize=auto;html=1;" edge="1" parent="1" source="kPjmXngsmsVLts5UkG2c-4" target="kPjmXngsmsVLts5UkG2c-5">
          <mxGeometry relative="1" as="geometry" />
        </mxCell>
        <mxCell id="kPjmXngsmsVLts5UkG2c-4" value="lees medewerker (naam, statuut en brutoloon)" style="rounded=0;whiteSpace=wrap;html=1;" vertex="1" parent="1">
          <mxGeometry x="384" y="390" width="146" height="80" as="geometry" />
        </mxCell>
        <mxCell id="kPjmXngsmsVLts5UkG2c-22" value="" style="edgeStyle=orthogonalEdgeStyle;rounded=0;orthogonalLoop=1;jettySize=auto;html=1;" edge="1" parent="1" source="kPjmXngsmsVLts5UkG2c-5" target="kPjmXngsmsVLts5UkG2c-10">
          <mxGeometry relative="1" as="geometry" />
        </mxCell>
        <mxCell id="kPjmXngsmsVLts5UkG2c-42" style="edgeStyle=orthogonalEdgeStyle;rounded=0;orthogonalLoop=1;jettySize=auto;html=1;entryX=0.5;entryY=1;entryDx=0;entryDy=0;" edge="1" parent="1" source="kPjmXngsmsVLts5UkG2c-5" target="kPjmXngsmsVLts5UkG2c-11">
          <mxGeometry relative="1" as="geometry" />
        </mxCell>
        <mxCell id="kPjmXngsmsVLts5UkG2c-5" value="if statuut = bediende" style="rhombus;whiteSpace=wrap;html=1;" vertex="1" parent="1">
          <mxGeometry x="547.5" y="390" width="130" height="80" as="geometry" />
        </mxCell>
        <mxCell id="kPjmXngsmsVLts5UkG2c-8" value="Nee" style="text;html=1;align=center;verticalAlign=middle;whiteSpace=wrap;rounded=0;fontStyle=1" vertex="1" parent="1">
          <mxGeometry x="324" y="390" width="60" height="30" as="geometry" />
        </mxCell>
        <mxCell id="kPjmXngsmsVLts5UkG2c-9" value="Ja" style="text;html=1;align=center;verticalAlign=middle;whiteSpace=wrap;rounded=0;fontStyle=1" vertex="1" parent="1">
          <mxGeometry x="190" y="490" width="60" height="30" as="geometry" />
        </mxCell>
        <mxCell id="kPjmXngsmsVLts5UkG2c-33" style="edgeStyle=orthogonalEdgeStyle;rounded=0;orthogonalLoop=1;jettySize=auto;html=1;exitX=0.5;exitY=0;exitDx=0;exitDy=0;" edge="1" parent="1" source="kPjmXngsmsVLts5UkG2c-10" target="kPjmXngsmsVLts5UkG2c-14">
          <mxGeometry relative="1" as="geometry" />
        </mxCell>
        <mxCell id="kPjmXngsmsVLts5UkG2c-10" value="bereken bijdrage voor bediende&lt;div&gt;(25% x brutoloon)&lt;/div&gt;" style="rounded=0;whiteSpace=wrap;html=1;" vertex="1" parent="1">
          <mxGeometry x="535" y="310" width="155" height="60" as="geometry" />
        </mxCell>
        <mxCell id="kPjmXngsmsVLts5UkG2c-24" style="edgeStyle=orthogonalEdgeStyle;rounded=0;orthogonalLoop=1;jettySize=auto;html=1;exitX=0.5;exitY=0;exitDx=0;exitDy=0;entryX=1;entryY=0.5;entryDx=0;entryDy=0;" edge="1" parent="1" source="kPjmXngsmsVLts5UkG2c-11" target="kPjmXngsmsVLts5UkG2c-14">
          <mxGeometry relative="1" as="geometry">
            <Array as="points">
              <mxPoint x="770" y="310" />
              <mxPoint x="770" y="275" />
            </Array>
          </mxGeometry>
        </mxCell>
        <mxCell id="kPjmXngsmsVLts5UkG2c-11" value="bereken bijdrage voor arbeider&lt;div&gt;25% x (brutoloon + 8%)&lt;/div&gt;" style="rounded=0;whiteSpace=wrap;html=1;" vertex="1" parent="1">
          <mxGeometry x="702.5" y="310" width="137.5" height="60" as="geometry" />
        </mxCell>
        <mxCell id="kPjmXngsmsVLts5UkG2c-12" value="Nee" style="text;html=1;align=center;verticalAlign=middle;whiteSpace=wrap;rounded=0;fontStyle=1" vertex="1" parent="1">
          <mxGeometry x="690" y="440" width="60" height="30" as="geometry" />
        </mxCell>
        <mxCell id="kPjmXngsmsVLts5UkG2c-25" style="edgeStyle=orthogonalEdgeStyle;rounded=0;orthogonalLoop=1;jettySize=auto;html=1;entryX=0.5;entryY=0;entryDx=0;entryDy=0;" edge="1" parent="1" source="kPjmXngsmsVLts5UkG2c-14" target="kPjmXngsmsVLts5UkG2c-3">
          <mxGeometry relative="1" as="geometry">
            <Array as="points">
              <mxPoint x="260" y="270" />
            </Array>
          </mxGeometry>
        </mxCell>
        <mxCell id="kPjmXngsmsVLts5UkG2c-14" value="&lt;span style=&quot;color: rgba(0, 0, 0, 0); font-family: monospace; font-size: 0px; text-align: start; text-wrap-mode: nowrap;&quot;&gt;%3CmxGraphModel%3E%3Croot%3E%3CmxCell%20id%3D%220%22%2F%3E%3CmxCell%20id%3D%221%22%20parent%3D%220%22%2F%3E%3CmxCell%20id%3D%222%22%20value%3D%22lees%20medewerker%20(naam%2C%20rol%20en%20brutoloon)%22%20style%3D%22rounded%3D0%3BwhiteSpace%3Dwrap%3Bhtml%3D1%3B%22%20vertex%3D%221%22%20parent%3D%221%22%3E%3CmxGeometry%20x%3D%22295%22%20y%3D%22400%22%20width%3D%22130%22%20height%3D%2260%22%20as%3D%22geometry%22%2F%3E%3C%2FmxCell%3E%3C%2Froot%3E%3C%2FmxGraphModel%3Etel bok&lt;/span&gt;tel bijdrage op bij totale_bijdrage_som&lt;div&gt;&lt;br&gt;&lt;div&gt;neem volgende medewerker&lt;div&gt;nr_medewerker+1&lt;/div&gt;&lt;/div&gt;&lt;/div&gt;" style="rounded=0;whiteSpace=wrap;html=1;" vertex="1" parent="1">
          <mxGeometry x="360" y="230" width="159" height="89" as="geometry" />
        </mxCell>
        <mxCell id="kPjmXngsmsVLts5UkG2c-29" value="" style="edgeStyle=orthogonalEdgeStyle;rounded=0;orthogonalLoop=1;jettySize=auto;html=1;" edge="1" parent="1" source="kPjmXngsmsVLts5UkG2c-26" target="kPjmXngsmsVLts5UkG2c-28">
          <mxGeometry relative="1" as="geometry" />
        </mxCell>
        <mxCell id="kPjmXngsmsVLts5UkG2c-26" value="Druk totale_bijdrage_som" style="rounded=0;whiteSpace=wrap;html=1;" vertex="1" parent="1">
          <mxGeometry x="160" y="530" width="200" height="60" as="geometry" />
        </mxCell>
        <mxCell id="kPjmXngsmsVLts5UkG2c-28" value="Einde" style="rounded=1;whiteSpace=wrap;html=1;" vertex="1" parent="1">
          <mxGeometry x="180" y="640" width="160" height="60" as="geometry" />
        </mxCell>
        <mxCell id="kPjmXngsmsVLts5UkG2c-31" value="Ja" style="text;html=1;align=center;verticalAlign=middle;whiteSpace=wrap;rounded=0;fontStyle=1" vertex="1" parent="1">
          <mxGeometry x="547.5" y="370" width="60" height="30" as="geometry" />
        </mxCell>
        <mxCell id="kPjmXngsmsVLts5UkG2c-35" value="" style="shape=curlyBracket;whiteSpace=wrap;html=1;rounded=1;labelPosition=left;verticalLabelPosition=middle;align=right;verticalAlign=middle;" vertex="1" parent="1">
          <mxGeometry x="140" y="270" width="20" height="210" as="geometry" />
        </mxCell>
        <mxCell id="kPjmXngsmsVLts5UkG2c-36" value="Voor elke medewerker in de lijst, bereken de bijdrage op basis van zijn statuut en sommeer" style="text;html=1;align=center;verticalAlign=middle;whiteSpace=wrap;rounded=0;fontStyle=1" vertex="1" parent="1">
          <mxGeometry x="10" y="310" width="120" height="160" as="geometry" />
        </mxCell>
      </root>
    </mxGraphModel>
  </diagram>
</mxfile>
